<?xml version="1.0" encoding="utf-8"?>
<!-- Generator: Adobe Illustrator 14.0.0, SVG Export Plug-In . SVG Version: 6.00 Build 43363)  -->
<!DOCTYPE svg PUBLIC "-//W3C//DTD SVG 1.1//EN" "http://www.w3.org/Graphics/SVG/1.1/DTD/svg11.dtd">
<svg version="1.1" id="圖層_1" xmlns="http://www.w3.org/2000/svg" xmlns:xlink="http://www.w3.org/1999/xlink" x="0px" y="0px"
	 width="29.5px" height="30px" viewBox="0 0 29.5 30" enable-background="new 0 0 29.5 30" xml:space="preserve">
<g>
	<g>
		<path fill="#FFFFFF" d="M4.535,27.088c-0.197,0-0.39-0.085-0.523-0.244c-0.195-0.231-0.213-0.565-0.045-0.818l2.438-3.657
			c-2.982-2.067-4.679-5.046-4.679-8.26c0-5.984,5.958-10.854,13.283-10.854s13.284,4.869,13.284,10.854
			c0,5.985-5.96,10.854-13.284,10.854c-1.42,0-2.838-0.192-4.22-0.571l-5.978,2.639C4.722,27.07,4.628,27.088,4.535,27.088
			L4.535,27.088z M15.009,4.622c-6.571,0-11.917,4.256-11.917,9.487c0,2.938,1.685,5.666,4.622,7.485
			c0.157,0.098,0.269,0.254,0.308,0.436c0.04,0.181,0.003,0.37-0.099,0.524l-1.52,2.28l4.06-1.792
			c0.146-0.063,0.312-0.075,0.467-0.029c1.332,0.388,2.705,0.584,4.079,0.584c6.572,0,11.918-4.256,11.918-9.488
			C26.927,8.878,21.581,4.622,15.009,4.622L15.009,4.622z"/>
	</g>
	<g>
		<path fill="#FFFFFF" d="M15.922,17.708h1.026c0.457,0,0.941,0.099,0.941,0.684c0,0.6-0.541,0.685-0.941,0.685h-3.479
			c-0.399,0-0.941-0.085-0.941-0.685c0-0.585,0.485-0.684,0.941-0.684h1.084v-4.949h-1.084c-0.399,0-0.941-0.085-0.941-0.684
			c0-0.585,0.485-0.685,0.941-0.685h1.441c0.784,0,1.011,0.143,1.011,0.956V17.708z M13.854,8.623c0-0.484,0.271-0.641,0.642-0.641
			h0.783c0.372,0,0.643,0.157,0.643,0.641V9.28c0,0.485-0.271,0.642-0.643,0.642h-0.783c-0.371,0-0.642-0.157-0.642-0.642V8.623z"/>
	</g>
</g>
</svg>
