<?xml version="1.0" encoding="utf-8"?>
<!-- Generator: Adobe Illustrator 14.0.0, SVG Export Plug-In . SVG Version: 6.00 Build 43363)  -->
<!DOCTYPE svg PUBLIC "-//W3C//DTD SVG 1.1//EN" "http://www.w3.org/Graphics/SVG/1.1/DTD/svg11.dtd">
<svg version="1.1" id="圖層_1" xmlns="http://www.w3.org/2000/svg" xmlns:xlink="http://www.w3.org/1999/xlink" x="0px" y="0px"
	 width="29.5px" height="30px" viewBox="0 0 29.5 30" enable-background="new 0 0 29.5 30" xml:space="preserve">
<g>
	<path fill="#FFFFFF" d="M26.166,4.421h-4.641V3.337c0-0.414-0.336-0.75-0.75-0.75s-0.75,0.336-0.75,0.75v1.084h-9.5V3.337
		c0-0.414-0.336-0.75-0.75-0.75s-0.75,0.336-0.75,0.75v1.084H4.166c-0.414,0-0.75,0.336-0.75,0.75v21.333
		c0,0.414,0.336,0.75,0.75,0.75h22c0.414,0,0.75-0.336,0.75-0.75V5.171C26.916,4.757,26.58,4.421,26.166,4.421z M9.025,5.921v1.416
		c0,0.414,0.336,0.75,0.75,0.75s0.75-0.336,0.75-0.75V5.921h9.5v1.416c0,0.414,0.336,0.75,0.75,0.75s0.75-0.336,0.75-0.75V5.921
		h3.891v3.666h-20.5V5.921H9.025z M4.916,25.754V11.087h20.5v14.667H4.916z"/>
	<path fill="#FFFFFF" d="M13.806,15.111c-0.228-0.231-0.491-0.406-0.792-0.526s-0.636-0.181-1.005-0.181
		c-0.559,0-1.039,0.136-1.442,0.406c-0.402,0.271-0.71,0.663-0.921,1.179c-0.122,0.312-0.211,0.684-0.269,1.117
		s-0.086,0.92-0.086,1.461c0,0.419,0.026,0.809,0.078,1.168c0.052,0.36,0.133,0.688,0.244,0.985
		c0.219,0.545,0.543,0.971,0.975,1.279c0.432,0.308,0.92,0.461,1.464,0.461c0.473,0,0.902-0.114,1.289-0.344
		c0.387-0.229,0.703-0.555,0.945-0.977c0.193-0.344,0.326-0.728,0.398-1.15c0.07-0.422,0.107-0.927,0.107-1.514
		c0-1.082-0.137-1.918-0.408-2.509C14.225,15.627,14.034,15.341,13.806,15.111z M13.207,20.044
		c-0.076,0.426-0.206,0.753-0.393,0.982s-0.444,0.344-0.773,0.344c-0.318,0-0.571-0.11-0.758-0.33
		c-0.186-0.221-0.318-0.545-0.396-0.975c-0.079-0.43-0.119-0.981-0.119-1.654c0-0.992,0.093-1.727,0.277-2.203
		c0.185-0.476,0.513-0.714,0.985-0.714c0.329,0,0.587,0.106,0.773,0.319s0.318,0.528,0.397,0.945s0.118,0.953,0.118,1.609
		C13.319,19.059,13.281,19.618,13.207,20.044z"/>
	<path fill="#FFFFFF" d="M20.771,18.55c-0.191-0.193-0.426-0.365-0.705-0.516c0.289-0.243,0.512-0.493,0.668-0.749
		s0.234-0.563,0.234-0.921c0-0.272-0.055-0.526-0.162-0.763s-0.268-0.444-0.479-0.623s-0.459-0.316-0.746-0.411
		s-0.604-0.143-0.951-0.143c-0.396,0-0.756,0.057-1.078,0.17c-0.322,0.112-0.592,0.262-0.809,0.448s-0.383,0.382-0.494,0.588
		c-0.113,0.206-0.17,0.402-0.17,0.589c0,0.193,0.061,0.348,0.18,0.464c0.121,0.116,0.252,0.175,0.395,0.175
		c0.123,0,0.23-0.021,0.322-0.064c0.094-0.043,0.158-0.102,0.193-0.178c0.061-0.139,0.129-0.288,0.201-0.445
		c0.074-0.157,0.152-0.286,0.234-0.387s0.193-0.181,0.336-0.242c0.141-0.061,0.32-0.091,0.539-0.091c0.322,0,0.578,0.1,0.77,0.298
		c0.189,0.199,0.283,0.437,0.283,0.712c0,0.361-0.119,0.64-0.357,0.833s-0.521,0.289-0.85,0.289h-0.221
		c-0.254,0-0.445,0.054-0.574,0.159s-0.193,0.244-0.193,0.416c0,0.176,0.053,0.313,0.16,0.411s0.26,0.147,0.457,0.147
		c0.043,0,0.139-0.007,0.289-0.021s0.262-0.021,0.334-0.021c0.408,0,0.727,0.119,0.955,0.357c0.23,0.238,0.344,0.566,0.344,0.985
		c0,0.283-0.066,0.531-0.201,0.746s-0.305,0.377-0.51,0.486c-0.207,0.109-0.42,0.164-0.643,0.164c-0.387,0-0.686-0.121-0.898-0.362
		c-0.213-0.242-0.414-0.611-0.6-1.109c-0.029-0.082-0.09-0.153-0.182-0.212c-0.094-0.06-0.191-0.089-0.291-0.089
		c-0.201,0-0.367,0.063-0.502,0.19s-0.201,0.295-0.201,0.502c0,0.162,0.057,0.365,0.168,0.613c0.113,0.246,0.279,0.485,0.5,0.717
		c0.221,0.23,0.5,0.423,0.842,0.577c0.34,0.154,0.725,0.231,1.154,0.231c0.422,0,0.809-0.067,1.156-0.202
		c0.35-0.134,0.652-0.32,0.906-0.559s0.445-0.509,0.576-0.813s0.197-0.619,0.197-0.945c0-0.272-0.049-0.525-0.145-0.76
		C21.107,18.958,20.963,18.744,20.771,18.55z"/>
</g>
</svg>
