<?xml version="1.0" encoding="utf-8"?>
<!-- Generator: Adobe Illustrator 14.0.0, SVG Export Plug-In . SVG Version: 6.00 Build 43363)  -->
<!DOCTYPE svg PUBLIC "-//W3C//DTD SVG 1.1//EN" "http://www.w3.org/Graphics/SVG/1.1/DTD/svg11.dtd">
<svg version="1.1" id="圖層_1" xmlns="http://www.w3.org/2000/svg" xmlns:xlink="http://www.w3.org/1999/xlink" x="0px" y="0px"
	 width="29.5px" height="30px" viewBox="0 0 29.5 30" enable-background="new 0 0 29.5 30" xml:space="preserve">
<g>
	<path fill="#FFFFFF" d="M25.095,29c-0.014,0-0.028-0.001-0.041-0.002c-0.34-0.021-0.598-0.314-0.578-0.653
		c0.006-0.106,0.075-2.383-2.766-4.649c-0.605-0.481-1.206-0.884-1.739-1.238c-0.78-0.521-1.455-0.97-1.874-1.498
		c-0.696-0.882-0.358-2.011-0.05-2.539c0.107-0.186,0.307-0.302,0.521-0.307c0.021,0,1.91-0.054,3.534-0.653
		c-0.765-1.941-1.015-4.701-1.221-6.961c-0.075-0.816-0.141-1.557-0.225-2.147c-0.438-3.106-2.314-5.12-4.896-5.255l-0.293,0
		c-2.453,0.129-5.217,2.279-5.69,6.136c-0.483,3.906-0.45,6.957,0.08,8.491c1.942,0.206,2.898,0.392,2.94,0.401
		c0.174,0.033,0.325,0.141,0.415,0.294c0.309,0.528,0.647,1.657-0.048,2.537c-0.421,0.53-1.095,0.979-1.876,1.5
		c-0.531,0.354-1.133,0.757-1.738,1.239c-2.848,2.272-2.771,4.553-2.766,4.649c0.016,0.339-0.244,0.631-0.583,0.651
		c-0.342,0.001-0.631-0.236-0.654-0.576c-0.008-0.12-0.154-2.993,3.23-5.693c0.646-0.515,1.271-0.933,1.824-1.3
		c0.694-0.464,1.293-0.863,1.592-1.24c0.217-0.275,0.141-0.656,0.054-0.902c-0.457-0.075-1.417-0.221-2.887-0.367
		c-0.218-0.022-0.408-0.158-0.5-0.356c-1.018-2.196-0.632-6.882-0.311-9.479c0.556-4.535,3.886-7.066,6.886-7.222l0.359-0.001
		c3.242,0.168,5.564,2.59,6.089,6.321c0.087,0.613,0.158,1.386,0.232,2.206c0.218,2.404,0.49,5.395,1.363,7.118
		c0.075,0.149,0.087,0.321,0.033,0.479c-0.054,0.159-0.169,0.288-0.319,0.359c-1.521,0.73-3.387,0.933-4.194,0.99
		c-0.08,0.244-0.135,0.598,0.07,0.857c0.299,0.375,0.897,0.774,1.591,1.238c0.554,0.367,1.179,0.785,1.823,1.299
		c3.386,2.701,3.238,5.574,3.231,5.694C25.691,28.749,25.419,29,25.095,29L25.095,29z"/>
</g>
</svg>
