<?xml version="1.0" encoding="utf-8"?>
<!-- Generator: Adobe Illustrator 14.0.0, SVG Export Plug-In . SVG Version: 6.00 Build 43363)  -->
<!DOCTYPE svg PUBLIC "-//W3C//DTD SVG 1.1//EN" "http://www.w3.org/Graphics/SVG/1.1/DTD/svg11.dtd">
<svg version="1.1" id="圖層_1" xmlns="http://www.w3.org/2000/svg" xmlns:xlink="http://www.w3.org/1999/xlink" x="0px" y="0px"
	 width="29.5px" height="30px" viewBox="0 0 29.5 30" enable-background="new 0 0 29.5 30" xml:space="preserve">
<g>
	<path fill="#FFFFFF" d="M24.846,28.957c-0.303,0-0.572-0.212-0.636-0.52c-0.005-0.024-0.511-2.432-2.318-3.98
		c-0.847-0.727-1.609-1.183-2.281-1.587c-0.896-0.535-1.665-0.997-2.095-1.839c-0.742-1.461-0.048-3.128-0.019-3.199
		c0.033-0.08,0.085-0.151,0.145-0.211c0.443-0.431,1.642-1.782,1.873-2.861c0.26-1.202,0.418-4.832,0.42-4.868l0.823-4.647
		l-0.278-2.663c-0.847,0.166-2.263,0.439-3.143,0.586c-1.374,0.228-2.477-0.294-2.971-0.592l-0.771,0.187
		c-0.027,0.006-1.791,0.411-2.722,1.342c-0.682,0.682-0.998,2.108-1.09,2.784c0.209,0.512,0.523,1.794,0.523,4.87
		c0,3.618,2.748,5.793,2.776,5.815c0.118,0.091,0.202,0.22,0.236,0.365c0.046,0.194,0.431,1.931-0.033,3.048
		c-0.31,0.744-1.287,1.242-2.418,1.818c-0.816,0.416-1.661,0.846-2.265,1.363c-2.819,2.415-2.946,4.148-2.948,4.164
		c-0.018,0.354-0.318,0.657-0.671,0.619c-0.354-0.013-0.632-0.302-0.625-0.654c0.004-0.229,0.136-2.32,3.399-5.114
		c0.723-0.619,1.679-1.105,2.521-1.535c0.711-0.361,1.684-0.856,1.81-1.16c0.223-0.536,0.104-1.534,0.009-2.046
		c-0.71-0.621-3.088-2.969-3.088-6.683c0-3.55-0.427-4.387-0.445-4.421c-0.09-0.127-0.107-0.245-0.093-0.4
		c0.01-0.103,0.252-2.519,1.485-3.751c1.202-1.201,3.26-1.67,3.347-1.689l1.035-0.25c0.191-0.045,0.396-0.002,0.552,0.12
		c0.007,0.004,0.965,0.736,2.235,0.52c1.272-0.212,3.775-0.711,3.801-0.716c0.181-0.036,0.365,0.006,0.512,0.114
		c0.147,0.108,0.241,0.274,0.261,0.456l0.359,3.462c0.007,0.06,0.005,0.121-0.007,0.181l-0.827,4.651
		c0.001,0.067-0.158,3.69-0.438,4.999c-0.313,1.471-1.724,2.997-2.129,3.413c-0.105,0.309-0.365,1.242,0.018,1.997
		c0.259,0.509,0.823,0.848,1.604,1.314c0.682,0.408,1.527,0.916,2.459,1.715c2.157,1.847,2.725,4.595,2.746,4.711
		c0.072,0.35-0.156,0.691-0.508,0.762C24.933,28.953,24.889,28.957,24.846,28.957L24.846,28.957z"/>
</g>
</svg>
