<?xml version="1.0" encoding="utf-8"?>
<!-- Generator: Adobe Illustrator 14.0.0, SVG Export Plug-In . SVG Version: 6.00 Build 43363)  -->
<!DOCTYPE svg PUBLIC "-//W3C//DTD SVG 1.1//EN" "http://www.w3.org/Graphics/SVG/1.1/DTD/svg11.dtd">
<svg version="1.1" id="圖層_1" xmlns="http://www.w3.org/2000/svg" xmlns:xlink="http://www.w3.org/1999/xlink" x="0px" y="0px"
	 width="29.5px" height="30px" viewBox="0 0 29.5 30" enable-background="new 0 0 29.5 30" xml:space="preserve">
<g>
	<g>
		<path fill="#FFFFFF" d="M10.251,20.396c-2.604,0-5.053-1.014-6.895-2.855S0.5,13.25,0.5,10.646c0-2.604,1.015-5.053,2.856-6.895
			s4.29-2.855,6.895-2.855c2.604,0,5.051,1.014,6.893,2.855c3.801,3.801,3.801,9.987,0,13.789
			C15.303,19.382,12.855,20.396,10.251,20.396L10.251,20.396z M10.251,2.396c-2.204,0-4.275,0.857-5.834,2.416S2,8.442,2,10.646
			c0,2.203,0.858,4.275,2.417,5.834s3.63,2.416,5.834,2.416c2.203,0,4.274-0.857,5.833-2.416c3.217-3.218,3.217-8.451,0-11.668
			C14.526,3.253,12.455,2.396,10.251,2.396L10.251,2.396z"/>
	</g>
	<g>
		<g>
			<g>
				<path fill="#FFFFFF" d="M28.277,29.419c-0.191,0-0.383-0.073-0.529-0.22L16.244,17.702c-0.293-0.293-0.293-0.768,0-1.061
					s0.768-0.293,1.061,0l11.504,11.498c0.293,0.293,0.293,0.768,0,1.061C28.662,29.346,28.471,29.419,28.277,29.419L28.277,29.419z
					"/>
			</g>
		</g>
	</g>
</g>
</svg>
