<?xml version="1.0" encoding="utf-8"?>
<!-- Generator: Adobe Illustrator 16.0.0, SVG Export Plug-In . SVG Version: 6.00 Build 0)  -->
<!DOCTYPE svg PUBLIC "-//W3C//DTD SVG 1.1//EN" "http://www.w3.org/Graphics/SVG/1.1/DTD/svg11.dtd" [
	<!ENTITY st0 "fill:#CCCCCC;">
]>
<svg version="1.1" id="圖層_2" xmlns="http://www.w3.org/2000/svg" xmlns:xlink="http://www.w3.org/1999/xlink" x="0px" y="0px"
	 width="400px" height="400px" viewBox="0 0 400 400" style="enable-background:new 0 0 400 400;" xml:space="preserve">
<g>
	<path style="&st0;" d="M112.934,208.834h-9.902v-18.152h2.813v15.738h7.09V208.834z"/>
	<path style="&st0;" d="M113.531,199.986c0-2.867,0.803-5.186,2.408-6.955s3.771-2.654,6.498-2.654c2.555,0,4.605,0.859,6.152,2.578
		s2.32,3.922,2.32,6.609c0,2.852-0.789,5.16-2.367,6.926s-3.711,2.648-6.398,2.648c-2.563,0-4.639-0.852-6.229-2.555
		S113.531,202.682,113.531,199.986z M116.484,199.787c0,2,0.512,3.646,1.535,4.939s2.406,1.939,4.148,1.939
		c1.828,0,3.25-0.615,4.266-1.846s1.523-2.893,1.523-4.986c0-2.141-0.49-3.836-1.471-5.086s-2.377-1.875-4.189-1.875
		c-1.766,0-3.176,0.648-4.23,1.945S116.484,197.771,116.484,199.787z"/>
	<path style="&st0;" d="M148.664,208.834h-3.094l-1.699-4.723h-7.266l-1.617,4.723h-3.094l6.844-18.152h3.129L148.664,208.834z
		 M143.086,201.779l-2.531-7.16c-0.094-0.258-0.188-0.715-0.281-1.371h-0.082c-0.07,0.539-0.168,0.988-0.293,1.348l-2.52,7.184
		H143.086z"/>
	<path style="&st0;" d="M151.195,208.834v-18.152h5.508c6.406,0,9.609,2.949,9.609,8.848c0,2.836-0.912,5.096-2.736,6.779
		s-4.162,2.525-7.014,2.525H151.195z M154.008,193.096v13.324h2.473c2.141,0,3.822-0.6,5.045-1.799s1.834-2.877,1.834-5.033
		c0-2.117-0.582-3.729-1.746-4.834s-2.852-1.658-5.063-1.658H154.008z"/>
	<path style="&st0;" d="M174.188,192.979H172.5v13.559h1.688v2.297h-6.176v-2.297h1.676v-13.559h-1.676v-2.297h6.176V192.979z"/>
	<path style="&st0;" d="M192.281,208.834h-3.141l-8.684-13.383c-0.32-0.492-0.555-0.918-0.703-1.277h-0.07
		c0.07,0.469,0.105,1.352,0.105,2.648v12.012h-2.73v-18.152h3.328l8.426,13.125c0.398,0.625,0.664,1.059,0.797,1.301h0.059
		c-0.086-0.563-0.129-1.43-0.129-2.602v-11.824h2.742V208.834z"/>
	<path style="&st0;" d="M210.867,207.604c-1.813,1.023-3.902,1.535-6.27,1.535c-2.711,0-4.879-0.824-6.504-2.473
		s-2.438-3.867-2.438-6.656c0-2.82,0.9-5.131,2.701-6.932s4.119-2.701,6.955-2.701c1.953,0,3.625,0.301,5.016,0.902v2.883
		c-1.43-0.883-3.16-1.324-5.191-1.324c-1.914,0-3.48,0.645-4.699,1.934s-1.828,2.98-1.828,5.074c0,2.156,0.561,3.838,1.682,5.045
		s2.639,1.811,4.553,1.811c1.266,0,2.332-0.234,3.199-0.703v-4.547h-3.855v-2.391h6.68V207.604z"/>
	<path style="&st0;" d="M225.328,192.979h-1.688v13.559h1.688v2.297h-6.176v-2.297h1.676v-13.559h-1.676v-2.297h6.176V192.979z"/>
	<path style="&st0;" d="M244.676,208.834v-11.719c0-1.023,0.055-2.238,0.164-3.645h-0.07c-0.234,1.008-0.418,1.668-0.551,1.98
		l-5.52,13.383h-1.84l-5.543-13.277c-0.141-0.336-0.324-1.031-0.551-2.086h-0.07c0.078,1.094,0.117,2.414,0.117,3.961v11.402h-2.613
		v-18.152h3.926l4.91,11.988c0.383,0.938,0.637,1.715,0.762,2.332h0.082c0.148-0.492,0.422-1.281,0.82-2.367l4.992-11.953h3.773
		v18.152H244.676z"/>
	<path style="&st0;" d="M266.73,208.834h-3.094l-1.699-4.723h-7.266l-1.617,4.723h-3.094l6.844-18.152h3.129L266.73,208.834z
		 M261.152,201.779l-2.531-7.16c-0.094-0.258-0.188-0.715-0.281-1.371h-0.082c-0.07,0.539-0.168,0.988-0.293,1.348l-2.52,7.184
		H261.152z"/>
	<path style="&st0;" d="M282.961,207.604c-1.813,1.023-3.902,1.535-6.27,1.535c-2.711,0-4.879-0.824-6.504-2.473
		s-2.438-3.867-2.438-6.656c0-2.82,0.9-5.131,2.701-6.932s4.119-2.701,6.955-2.701c1.953,0,3.625,0.301,5.016,0.902v2.883
		c-1.43-0.883-3.16-1.324-5.191-1.324c-1.914,0-3.48,0.645-4.699,1.934s-1.828,2.98-1.828,5.074c0,2.156,0.561,3.838,1.682,5.045
		s2.639,1.811,4.553,1.811c1.266,0,2.332-0.234,3.199-0.703v-4.547h-3.855v-2.391h6.68V207.604z"/>
	<path style="&st0;" d="M296.988,208.834h-10.055v-18.152h9.645v2.414h-6.832v5.344h6.34v2.402h-6.34v5.578h7.242V208.834z"/>
</g>
<g>
</g>
<g>
</g>
<g>
</g>
<g>
</g>
<g>
</g>
<g>
</g>
</svg>
