<?xml version="1.0" encoding="utf-8"?>
<!-- Generator: Adobe Illustrator 16.0.0, SVG Export Plug-In . SVG Version: 6.00 Build 0)  -->
<!DOCTYPE svg PUBLIC "-//W3C//DTD SVG 1.1//EN" "http://www.w3.org/Graphics/SVG/1.1/DTD/svg11.dtd">
<svg version="1.1" id="圖層_1" xmlns="http://www.w3.org/2000/svg" xmlns:xlink="http://www.w3.org/1999/xlink" x="0px" y="0px"
	 width="400px" height="400px" viewBox="0 0 400 400" enable-background="new 0 0 400 400" xml:space="preserve">
<g>
	<g>
		<path fill="#CCCCCC" d="M313.036,113.018h-32c0,0-9.25,0-16-16c-3.376-8.165-7.128-16-16-16h-64c-8.813,0-12.686,7.813-16,16
			c-6.492,16-16,16-16,16h-16c0-8.813-7.187-16-16-16h-16c-8.813,0-16,7.187-16,16c-8.813,0-16,7.187-16,16v32h88.883
			c11.057-19.063,31.478-32,55.117-32c23.627,0,44.063,12.937,55.129,32h56.871v-32
			C329.036,120.205,321.907,113.018,313.036,113.018z M129.036,145.018h-32c-4.437,0-8-3.563-8-8c0-4.438,3.563-8,8-8h8h16h8
			c4.438,0,8,3.563,8,8S133.473,145.018,129.036,145.018z M169.036,193.018c0,26.516,21.484,48,48,48c26.517,0,48-21.483,48-48
			s-21.483-48-48-48C190.52,145.018,169.036,166.501,169.036,193.018z M281.036,193.018c0,35.373-28.626,64-64,64
			c-35.313,0-64-28.627-64-64c0-5.563,0.938-10.873,2.267-16H73.036v80c0,8.873,7.188,16,16,16h224c8.871,0,16-7.127,16-16v-80
			H278.77C280.165,182.145,281.036,187.454,281.036,193.018z"/>
	</g>
</g>
<g>
	<path fill="#CCCCCC" d="M99.627,315.078c-1.43,0.855-3.264,1.283-5.502,1.283c-2.836,0-5.133-0.896-6.891-2.689
		s-2.637-4.137-2.637-7.031c0-3.246,0.942-5.83,2.83-7.752c1.887-1.922,4.399-2.883,7.54-2.883c1.935,0,3.498,0.311,4.693,0.932
		v3.867c-1.383-0.996-2.877-1.494-4.481-1.494c-1.898,0-3.438,0.637-4.614,1.908c-1.177,1.271-1.768,2.979-1.768,5.123
		c0,2.098,0.561,3.741,1.68,4.932c1.119,1.189,2.622,1.783,4.509,1.783c1.641,0,3.188-0.527,4.641-1.582V315.078z"/>
	<path fill="#CCCCCC" d="M102.809,306.359c0-3.199,0.911-5.726,2.732-7.576c1.822-1.852,4.305-2.777,7.444-2.777
		c2.965,0,5.309,0.896,7.031,2.689c1.722,1.793,2.584,4.242,2.584,7.348c0,3.129-0.908,5.631-2.726,7.506
		c-1.816,1.875-4.242,2.813-7.276,2.813c-2.978,0-5.354-0.907-7.128-2.725C103.696,311.82,102.809,309.395,102.809,306.359z
		 M107.01,306.271c0,2.133,0.52,3.797,1.557,4.992c1.037,1.194,2.446,1.793,4.228,1.793c3.738,0,5.607-2.304,5.607-6.908
		c0-2.228-0.48-3.924-1.441-5.09s-2.35-1.748-4.166-1.748c-1.815,0-3.233,0.621-4.254,1.862
		C107.52,302.415,107.01,304.115,107.01,306.271z"/>
	<path fill="#CCCCCC" d="M155.948,315.904h-4.131V304.76c0-1.922-0.312-3.311-0.933-4.166c-0.62-0.854-1.61-1.283-2.971-1.283
		c-1.172,0-2.18,0.539-3.022,1.617c-0.844,1.078-1.267,2.396-1.267,3.955v11.021h-4.112v-11.426c0-3.445-1.318-5.168-3.955-5.168
		c-1.22,0-2.229,0.521-3.032,1.563s-1.204,2.392-1.204,4.043v10.985h-4.131v-19.44h4.131v3.06h0.088
		c1.396-2.344,3.434-3.517,6.117-3.517c2.729,0,4.576,1.295,5.537,3.886c1.453-2.591,3.621-3.886,6.504-3.886
		c4.254,0,6.381,2.632,6.381,7.894V315.904z"/>
	<path fill="#CCCCCC" d="M160.975,289.783c0-0.691,0.236-1.264,0.712-1.715c0.475-0.45,1.075-0.676,1.802-0.676
		c0.715,0,1.318,0.226,1.811,0.676c0.493,0.451,0.738,1.022,0.738,1.715c0,0.691-0.246,1.263-0.738,1.714
		c-0.491,0.45-1.096,0.677-1.811,0.677s-1.313-0.229-1.793-0.686C161.216,291.031,160.975,290.463,160.975,289.783z
		 M161.379,315.904v-19.441h4.131v19.441H161.379z"/>
	<path fill="#CCCCCC" d="M188.397,315.904h-4.113v-10.986c0-3.738-1.359-5.607-4.078-5.607c-1.371,0-2.505,0.52-3.4,1.557
		c-0.896,1.037-1.346,2.354-1.346,3.945v11.092h-4.131v-19.44h4.131v3.183h0.088c1.441-2.426,3.552-3.64,6.328-3.64
		c4.349,0,6.521,2.673,6.521,8.017V315.904L188.397,315.904z"/>
	<path fill="#CCCCCC" d="M211.336,314.111c0,7.289-3.645,10.934-10.933,10.934c-2.473,0-4.57-0.422-6.293-1.266v-3.797
		c2.133,1.195,4.201,1.793,6.205,1.793c4.593,0,6.89-2.351,6.89-7.049v-1.935h-0.07c-1.43,2.379-3.579,3.567-6.45,3.567
		c-2.438,0-4.393-0.869-5.862-2.609s-2.206-4.063-2.206-6.971c0-3.28,0.806-5.896,2.417-7.848c1.611-1.953,3.759-2.928,6.442-2.928
		c2.543,0,4.43,1.002,5.66,3.006h0.069v-2.549h4.131V314.111L211.336,314.111z M207.24,304.514c0-1.441-0.475-2.668-1.424-3.683
		s-2.121-1.521-3.517-1.521c-1.698,0-3.037,0.642-4.016,1.924c-0.978,1.283-1.468,3.063-1.468,5.336c0,1.969,0.469,3.541,1.406,4.72
		c0.937,1.178,2.174,1.767,3.708,1.767c1.559,0,2.834-0.58,3.823-1.74c0.99-1.16,1.484-2.625,1.484-4.395v-2.408H207.24z"/>
	<path fill="#CCCCCC" d="M234.24,311.387c1.816,1.23,3.703,1.846,5.66,1.846c2.578,0,3.867-0.797,3.867-2.391
		c0-0.668-0.271-1.216-0.81-1.645c-0.539-0.428-1.752-0.992-3.639-1.695c-1.98-0.762-3.316-1.572-4.008-2.436
		c-0.692-0.861-1.037-1.941-1.037-3.242c0-1.793,0.75-3.211,2.25-4.254s3.356-1.564,5.572-1.564c1.698,0,3.286,0.281,4.764,0.844
		v3.656c-1.478-0.914-3.129-1.371-4.957-1.371c-1.043,0-1.887,0.217-2.531,0.65c-0.644,0.433-0.967,1.002-0.967,1.705
		c0,0.691,0.237,1.236,0.712,1.635s1.567,0.926,3.278,1.582c2.108,0.773,3.548,1.598,4.314,2.47c0.768,0.873,1.151,1.96,1.151,3.261
		c0,1.84-0.75,3.287-2.25,4.342c-1.5,1.056-3.469,1.582-5.906,1.582c-2.086,0-3.908-0.362-5.467-1.09v-3.885H234.24z"/>
	<path fill="#CCCCCC" d="M250.904,306.359c0-3.199,0.911-5.726,2.733-7.576c1.821-1.852,4.304-2.777,7.443-2.777
		c2.965,0,5.31,0.896,7.031,2.689s2.584,4.242,2.584,7.348c0,3.129-0.908,5.631-2.725,7.506c-1.817,1.875-4.242,2.813-7.277,2.813
		c-2.978,0-5.354-0.907-7.128-2.725C251.791,311.82,250.904,309.395,250.904,306.359z M255.105,306.271
		c0,2.133,0.519,3.797,1.556,4.992c1.037,1.194,2.446,1.793,4.229,1.793c3.737,0,5.606-2.304,5.606-6.908
		c0-2.228-0.479-3.924-1.44-5.09s-2.351-1.748-4.166-1.748c-1.816,0-3.234,0.621-4.254,1.862
		C255.615,302.415,255.105,304.115,255.105,306.271z"/>
	<path fill="#CCCCCC" d="M274.037,306.359c0-3.199,0.911-5.726,2.733-7.576c1.821-1.852,4.304-2.777,7.443-2.777
		c2.966,0,5.31,0.896,7.031,2.689s2.584,4.242,2.584,7.348c0,3.129-0.908,5.631-2.725,7.506c-1.817,1.875-4.242,2.813-7.277,2.813
		c-2.977,0-5.353-0.907-7.128-2.725C274.924,311.82,274.037,309.395,274.037,306.359z M278.238,306.271
		c0,2.133,0.519,3.797,1.556,4.992c1.037,1.194,2.446,1.793,4.229,1.793c3.738,0,5.606-2.304,5.606-6.908
		c0-2.228-0.479-3.924-1.44-5.09s-2.351-1.748-4.166-1.748c-1.816,0-3.234,0.621-4.254,1.862
		C278.748,302.415,278.238,304.115,278.238,306.271z"/>
	<path fill="#CCCCCC" d="M315.486,315.904h-4.113v-10.986c0-3.738-1.358-5.607-4.077-5.607c-1.371,0-2.506,0.52-3.401,1.557
		c-0.896,1.037-1.345,2.354-1.345,3.945v11.092h-4.132v-19.44h4.132v3.183h0.088c1.44-2.426,3.551-3.64,6.328-3.64
		c4.348,0,6.521,2.673,6.521,8.017V315.904z"/>
</g>
</svg>
