<?xml version="1.0" encoding="utf-8"?>
<!-- Generator: Adobe Illustrator 14.0.0, SVG Export Plug-In  -->
<!DOCTYPE svg PUBLIC "-//W3C//DTD SVG 1.1//EN" "http://www.w3.org/Graphics/SVG/1.1/DTD/svg11.dtd" [
	<!ENTITY ns_flows "http://ns.adobe.com/Flows/1.0/">
]>
<svg version="1.1"
	 xmlns="http://www.w3.org/2000/svg" xmlns:xlink="http://www.w3.org/1999/xlink" xmlns:a="http://ns.adobe.com/AdobeSVGViewerExtensions/3.0/"
	 x="0px" y="0px" width="36px" height="57px" viewBox="-2.275 -1.167 36 57" enable-background="new -2.275 -1.167 36 57"
	 xml:space="preserve">
<defs>
</defs>
<path fill="#FFFFFF" d="M17.459,35.766V6.79c0-3.75-3.039-6.79-6.789-6.79C6.919,0,3.88,3.041,3.88,6.79v28.976
	C1.511,37.723,0,40.684,0,43.997c0,5.892,4.777,10.67,10.67,10.67c5.891,0,10.668-4.778,10.668-10.67
	C21.339,40.684,19.829,37.723,17.459,35.766z M10.67,49.23c-2.871,0-5.203-2.3-5.283-5.152c-0.002-0.049-0.016-0.096-0.016-0.146
	c0-1.771,0.882-3.333,2.222-4.295c-0.062-0.244-0.103-0.496-0.103-0.76v-6.15V18.861h6.357v13.866v6.15
	c0,0.264-0.042,0.516-0.104,0.76c1.34,0.962,2.223,2.523,2.223,4.295c0,0.051-0.014,0.098-0.016,0.146
	C15.873,46.931,13.541,49.23,10.67,49.23z"/>
<path fill="#FFFFFF" d="M22.169,8.947c-1.427,0-2.587-1.16-2.587-2.586s1.16-2.586,2.587-2.586c1.426,0,2.586,1.16,2.586,2.586
	S23.595,8.947,22.169,8.947L22.169,8.947z M22.169,5.274c-0.6,0-1.087,0.487-1.087,1.086s0.487,1.086,1.087,1.086
	c0.599,0,1.086-0.487,1.086-1.086S22.768,5.274,22.169,5.274L22.169,5.274z"/>
<path fill="#FFFFFF" d="M32.647,12.084c0,0.251-0.062,0.522-0.186,0.815c-0.123,0.292-0.318,0.579-0.584,0.861
	c-0.266,0.281-0.604,0.51-1.017,0.686c-0.412,0.175-0.894,0.263-1.441,0.263c-0.417,0-0.794-0.039-1.136-0.118
	c-0.34-0.079-0.65-0.202-0.928-0.369c-0.277-0.167-0.533-0.386-0.767-0.659c-0.208-0.248-0.386-0.525-0.532-0.832
	c-0.147-0.307-0.258-0.634-0.331-0.981c-0.073-0.348-0.11-0.718-0.11-1.108c0-0.635,0.092-1.203,0.277-1.706
	c0.185-0.502,0.449-0.932,0.793-1.289c0.345-0.357,0.748-0.628,1.211-0.815s0.955-0.28,1.479-0.28c0.639,0,1.207,0.127,1.706,0.382
	c0.499,0.255,0.88,0.57,1.146,0.944c0.266,0.375,0.398,0.729,0.398,1.063c0,0.183-0.064,0.344-0.193,0.484
	c-0.129,0.14-0.285,0.209-0.469,0.209c-0.204,0-0.357-0.048-0.459-0.145c-0.103-0.097-0.217-0.264-0.342-0.5
	C30.954,8.6,30.71,8.307,30.429,8.113C30.147,7.92,29.8,7.823,29.388,7.823c-0.656,0-1.18,0.25-1.568,0.748
	s-0.584,1.207-0.584,2.125c0,0.613,0.086,1.124,0.258,1.531c0.173,0.407,0.416,0.711,0.732,0.912
	c0.315,0.201,0.686,0.301,1.107,0.301c0.459,0,0.848-0.114,1.166-0.341c0.316-0.228,0.557-0.563,0.718-1.003
	c0.067-0.208,0.152-0.377,0.253-0.509c0.1-0.131,0.262-0.196,0.484-0.196c0.189,0,0.354,0.066,0.489,0.199
	S32.647,11.887,32.647,12.084z"/>
</svg>
