<?xml version="1.0" encoding="utf-8"?>
<!-- Generator: Adobe Illustrator 14.0.0, SVG Export Plug-In  -->
<!DOCTYPE svg PUBLIC "-//W3C//DTD SVG 1.1//EN" "http://www.w3.org/Graphics/SVG/1.1/DTD/svg11.dtd" [
	<!ENTITY ns_flows "http://ns.adobe.com/Flows/1.0/">
]>
<svg version="1.1"
	 xmlns="http://www.w3.org/2000/svg" xmlns:xlink="http://www.w3.org/1999/xlink" xmlns:a="http://ns.adobe.com/AdobeSVGViewerExtensions/3.0/"
	 x="0px" y="0px" width="135px" height="249px" viewBox="-5.544 -4.898 135 249" enable-background="new -5.544 -4.898 135 249"
	 xml:space="preserve">
<defs>
</defs>
<circle fill="#FFFFFF" cx="25.848" cy="22.54" r="11.018"/>
<path fill="#FFFFFF" d="M25.848,8.048c0.959,0,1.74-0.78,1.74-1.74V1.74c0-0.959-0.78-1.74-1.74-1.74s-1.74,0.78-1.74,1.74v4.568
	C24.108,7.268,24.889,8.048,25.848,8.048z"/>
<path fill="#FFFFFF" d="M25.848,37.041c-0.959,0-1.74,0.78-1.74,1.74v4.568c0,0.959,0.78,1.74,1.74,1.74s1.74-0.78,1.74-1.74v-4.568
	C27.588,37.821,26.808,37.041,25.848,37.041z"/>
<path fill="#FFFFFF" d="M46.653,20.805h-4.568c-0.959,0-1.74,0.78-1.74,1.74s0.78,1.74,1.74,1.74h4.568c0.959,0,1.74-0.78,1.74-1.74
	S47.612,20.805,46.653,20.805z"/>
<path fill="#FFFFFF" d="M11.352,22.544c0-0.959-0.78-1.74-1.74-1.74H5.043c-0.959,0-1.74,0.78-1.74,1.74s0.78,1.74,1.74,1.74h4.568
	C10.571,24.284,11.352,23.504,11.352,22.544z"/>
<path fill="#FFFFFF" d="M13.089,12.439c0.678,0.678,1.782,0.678,2.46,0s0.678-1.782,0-2.46l-3.23-3.23
	c-0.678-0.679-1.782-0.679-2.46,0c-0.678,0.678-0.678,1.782,0,2.46L13.089,12.439z"/>
<path fill="#FFFFFF" d="M38.511,32.94c-0.678-0.678-1.782-0.678-2.46,0c-0.679,0.678-0.679,1.782,0,2.46l3.23,3.23
	c0.679,0.678,1.782,0.678,2.46,0c0.678-0.678,0.678-1.782,0-2.46L38.511,32.94z"/>
<path fill="#FFFFFF" d="M38.656,12.293l3.23-3.23c0.678-0.678,0.678-1.782,0-2.46c-0.678-0.678-1.782-0.678-2.46,0l-3.23,3.23
	c-0.679,0.678-0.679,1.782,0,2.46C36.874,12.972,37.977,12.972,38.656,12.293z"/>
<path fill="#FFFFFF" d="M13.233,32.795l-3.23,3.23c-0.679,0.678-0.679,1.782,0,2.46c0.678,0.678,1.782,0.678,2.46,0l3.23-3.23
	c0.678-0.678,0.678-1.782,0-2.46S13.912,32.117,13.233,32.795z"/>
<path fill="#FFFFFF" d="M47.703,85.917l-0.194-0.084l-0.095-0.189c-2.668-5.344-8.04-8.665-14.019-8.665
	c-0.225,0-0.449,0.008-0.672,0.017c-1.61-4.089-5.587-6.987-10.248-6.987c-6.085,0-11.018,4.933-11.018,11.018
	c0,1.317,0.239,2.576,0.666,3.745c-2.964,2.336-4.872,5.955-4.872,10.013c0,7.03,5.719,12.75,12.749,12.75
	c1.819,0,3.66-0.406,5.323-1.174l0.267-0.123l0.257,0.142c2.297,1.267,4.908,1.936,7.549,1.936c3.505,0,6.95-1.195,9.698-3.364
	l0.167-0.132l0.213,0.007c0.103,0.004,0.205,0.006,0.306,0.006c5.439,0,9.864-4.425,9.864-9.864
	C53.643,91.025,51.312,87.472,47.703,85.917z M43.779,101.356c-0.249,0-0.519-0.021-0.852-0.065l-0.795-0.106l-0.597,0.535
	c-2.24,2.011-5.131,3.118-8.14,3.118c-2.426,0-4.77-0.711-6.779-2.058l-0.916-0.614l-0.945,0.567
	c-1.446,0.866-3.09,1.324-4.755,1.324c-5.113,0-9.272-4.16-9.272-9.273s4.16-9.273,9.272-9.273c0.669,0,1.36,0.08,2.053,0.237
	l1.072,0.243l0.679-0.865c2.332-2.968,5.828-4.671,9.592-4.671c4.909,0,9.317,2.921,11.231,7.441l0.313,0.739l0.765,0.242
	c2.669,0.843,4.462,3.291,4.462,6.091C50.167,98.491,47.301,101.356,43.779,101.356z"/>
<path fill="#FFFFFF" d="M22.544,66.648c0.959,0,1.74-0.78,1.74-1.74V60.34c0-0.959-0.78-1.74-1.74-1.74s-1.74,0.78-1.74,1.74v4.568
	C20.805,65.868,21.585,66.648,22.544,66.648z"/>
<path fill="#FFFFFF" d="M8.048,81.145c0-0.959-0.78-1.74-1.74-1.74H1.74c-0.959,0-1.74,0.78-1.74,1.74s0.78,1.74,1.74,1.74h4.568
	C7.268,82.884,8.048,82.104,8.048,81.145z"/>
<path fill="#FFFFFF" d="M9.786,71.039c0.678,0.678,1.782,0.678,2.46,0c0.679-0.678,0.679-1.782,0-2.46l-3.23-3.23
	c-0.678-0.679-1.782-0.679-2.46,0c-0.678,0.678-0.678,1.782,0,2.46L9.786,71.039z"/>
<path fill="#FFFFFF" d="M35.352,70.894l3.23-3.23c0.678-0.679,0.678-1.782,0-2.46c-0.679-0.678-1.782-0.678-2.46,0l-3.23,3.23
	c-0.679,0.678-0.679,1.782,0,2.46C33.569,71.572,34.673,71.572,35.352,70.894z"/>
<path fill="#FFFFFF" d="M45.704,136.15l-0.195-0.084l-0.094-0.19c-2.668-5.344-8.04-8.664-14.019-8.664
	c-4.389,0-8.451,1.763-11.438,4.965l-0.201,0.215l-0.292-0.035c-0.492-0.059-0.985-0.088-1.464-0.088
	c-7.029,0-12.749,5.72-12.749,12.75c0,7.029,5.719,12.749,12.749,12.749c1.819,0,3.66-0.406,5.324-1.174l0.266-0.123l0.257,0.142
	c2.297,1.267,4.907,1.936,7.549,1.936c3.506,0,6.95-1.195,9.697-3.364l0.167-0.132l0.213,0.007c0.104,0.004,0.205,0.006,0.307,0.006
	c5.439,0,9.864-4.425,9.864-9.864C51.643,141.258,49.312,137.705,45.704,136.15z M41.779,151.589c-0.249,0-0.52-0.021-0.852-0.065
	l-0.795-0.106l-0.597,0.536c-2.24,2.01-5.131,3.118-8.14,3.118c-2.427,0-4.771-0.711-6.779-2.058l-0.916-0.614l-0.946,0.567
	c-1.446,0.866-3.09,1.324-4.755,1.324c-5.113,0-9.272-4.16-9.272-9.273s4.16-9.273,9.272-9.273c0.668,0,1.358,0.08,2.053,0.236
	l1.072,0.243l0.679-0.865c2.332-2.968,5.828-4.67,9.592-4.67c4.908,0,9.317,2.921,11.231,7.441l0.313,0.739l0.765,0.242
	c2.669,0.843,4.462,3.29,4.462,6.09C48.167,148.724,45.301,151.589,41.779,151.589z"/>
<path fill="#FFFFFF" d="M48.786,185.866l-0.195-0.084l-0.095-0.189c-2.668-5.345-8.04-8.665-14.019-8.665
	c-4.389,0-8.451,1.764-11.438,4.964l-0.201,0.215l-0.292-0.034c-0.492-0.059-0.985-0.088-1.464-0.088
	c-7.029,0-12.749,5.719-12.749,12.749c0,6.288,4.503,11.58,10.706,12.583l0.487,0.079v1.055c0,0.959,0.78,1.74,1.739,1.74
	c0.959,0,1.74-0.78,1.74-1.74v-1.112l0.47-0.09c1.021-0.197,2.006-0.513,2.93-0.94l0.266-0.123l0.256,0.142
	c0.852,0.469,1.753,0.86,2.678,1.163l0.479,0.157l-0.088,0.497c-0.018,0.1-0.032,0.202-0.032,0.308v4.569
	c0,0.959,0.78,1.74,1.74,1.74c0.959,0,1.74-0.78,1.74-1.74v-4.787l0.769,0.023c0.087,0.004,0.175,0.008,0.264,0.008
	c1.761,0,3.495-0.293,5.155-0.872l0.771-0.269v1.328c0,0.959,0.78,1.74,1.74,1.74s1.74-0.78,1.74-1.74v-3.324l0.444-0.332
	l0.229-0.019c0.103,0.003,0.205,0.005,0.306,0.005c5.439,0,9.865-4.425,9.865-9.864C54.726,190.975,52.395,187.422,48.786,185.866z
	 M44.861,201.305c-0.248,0-0.519-0.02-0.852-0.065l-0.795-0.106l-0.597,0.535c-2.24,2.011-5.131,3.118-8.14,3.118
	c-2.426,0-4.77-0.712-6.778-2.057l-0.917-0.614l-0.945,0.566c-1.447,0.867-3.091,1.325-4.755,1.325c-5.113,0-9.272-4.16-9.272-9.273
	c0-5.112,4.16-9.272,9.272-9.272c0.668,0,1.359,0.079,2.053,0.236l1.072,0.243l0.68-0.864c2.332-2.969,5.827-4.671,9.591-4.671
	c4.909,0,9.317,2.921,11.232,7.441l0.313,0.738l0.765,0.241c2.668,0.843,4.462,3.291,4.462,6.091
	C51.249,198.44,48.383,201.305,44.861,201.305z"/>
<path fill="#FFFFFF" d="M31.705,217.659c-0.959,0-1.74,0.78-1.74,1.74v4.568c0,0.959,0.78,1.74,1.74,1.74
	c0.959,0,1.74-0.78,1.74-1.74v-4.568C33.445,218.439,32.664,217.659,31.705,217.659z"/>
<path fill="#FFFFFF" d="M21.267,213.09c-0.959,0-1.739,0.78-1.739,1.74v4.569c0,0.959,0.78,1.74,1.739,1.74
	c0.959,0,1.74-0.78,1.74-1.74v-4.569C23.006,213.871,22.226,213.09,21.267,213.09z"/>
<path fill="#FFFFFF" d="M42.143,213.09c-0.959,0-1.74,0.78-1.74,1.74v4.569c0,0.959,0.78,1.74,1.74,1.74s1.74-0.78,1.74-1.74v-4.569
	C43.883,213.871,43.103,213.09,42.143,213.09z"/>
<path fill="#FFFFFF" d="M116.635,19.217l-0.195-0.084l-0.094-0.189c-2.668-5.344-8.04-8.664-14.019-8.664
	c-2.434,0-4.767,0.544-6.873,1.574l-0.025-0.052c-1.986-3.977-5.983-6.448-10.434-6.448c-3.266,0-6.29,1.312-8.513,3.695
	l-0.149,0.16l-0.218-0.026c-0.366-0.044-0.733-0.065-1.09-0.065c-5.232,0-9.488,4.257-9.488,9.488c0,5.232,4.256,9.489,9.488,9.489
	c0.387,0,0.773-0.032,1.159-0.08c0,0.024-0.001,0.047-0.001,0.071c0,7.03,5.719,12.75,12.749,12.75c1.819,0,3.66-0.406,5.324-1.175
	l0.266-0.123l0.257,0.142c2.297,1.266,4.907,1.936,7.549,1.936c3.506,0,6.95-1.195,9.697-3.364l0.167-0.132l0.213,0.007
	c0.104,0.004,0.205,0.006,0.307,0.006c5.439,0,9.864-4.424,9.864-9.864C122.575,24.325,120.243,20.772,116.635,19.217z
	 M75.459,25.141c-3.601,0-6.53-2.93-6.53-6.531c0-3.601,2.929-6.53,6.53-6.53c0.47,0,0.956,0.057,1.445,0.167l0.755,0.17
	l0.478-0.608c1.643-2.09,4.104-3.289,6.754-3.289c3.386,0,6.43,1.976,7.821,5.05c-0.644,0.504-1.254,1.062-1.824,1.673l-0.201,0.214
	l-0.292-0.034c-0.492-0.059-0.985-0.088-1.464-0.088c-5.979,0-11.007,4.138-12.377,9.7C76.193,25.098,75.828,25.141,75.459,25.141z
	 M112.711,34.656c-0.249,0-0.52-0.021-0.852-0.065l-0.795-0.106l-0.597,0.536c-2.24,2.011-5.131,3.118-8.14,3.118
	c-2.427,0-4.771-0.711-6.779-2.058l-0.916-0.614l-0.946,0.567c-1.446,0.867-3.09,1.324-4.755,1.324c-5.113,0-9.272-4.16-9.272-9.273
	s4.16-9.272,9.272-9.272c0.668,0,1.358,0.08,2.053,0.236l1.072,0.243l0.679-0.865c2.332-2.968,5.828-4.67,9.592-4.67
	c4.909,0,9.317,2.92,11.231,7.441l0.313,0.739l0.765,0.242c2.669,0.843,4.462,3.291,4.462,6.091
	C119.098,31.791,116.233,34.656,112.711,34.656z"/>
<path fill="#FFFFFF" d="M117.41,81.625c0-3.943-2.332-7.496-5.939-9.051l-0.195-0.084l-0.095-0.19
	c-2.667-5.343-8.04-8.664-14.019-8.664c-4.389,0-8.451,1.763-11.438,4.965l-0.201,0.214l-0.292-0.034
	c-0.493-0.059-0.985-0.088-1.464-0.088c-7.03,0-12.749,5.72-12.749,12.749c0,7.03,5.719,12.75,12.749,12.75
	c1.694,0,3.406-0.357,4.977-1.026l11.723,14.235l-3.648-11.549h7.852l-1.669-2.026c1.378-0.554,2.684-1.291,3.858-2.217l0.167-0.132
	l0.212,0.007c0.104,0.004,0.206,0.006,0.307,0.006c0.72,0,1.419-0.082,2.096-0.229c-0.587,0.494-0.802,1.334-0.462,2.062
	l1.929,4.142c0.405,0.87,1.442,1.248,2.311,0.842c0.87-0.405,1.248-1.442,0.843-2.312l-1.93-4.141
	c-0.262-0.563-0.791-0.916-1.366-0.987C114.722,89.47,117.41,85.861,117.41,81.625z M107.546,88.013
	c-0.249,0-0.52-0.021-0.852-0.065l-0.795-0.106l-0.597,0.536c-1.351,1.211-2.939,2.088-4.646,2.6l-8.84-10.734l3.51,11.114
	c-1.764-0.267-3.447-0.916-4.943-1.919l-0.917-0.614l-0.946,0.567c-1.445,0.867-3.089,1.324-4.754,1.324
	c-5.113,0-9.273-4.16-9.273-9.273s4.16-9.272,9.273-9.272c0.668,0,1.358,0.08,2.052,0.236l1.073,0.243l0.678-0.865
	c2.332-2.968,5.829-4.67,9.592-4.67c4.909,0,9.317,2.92,11.231,7.44l0.313,0.739l0.765,0.242c2.668,0.843,4.461,3.291,4.461,6.091
	C113.933,85.147,111.068,88.013,107.546,88.013z"/>
<path fill="#FFFFFF" d="M107.955,101.542c-0.405-0.87-1.442-1.248-2.312-0.843c-0.87,0.405-1.248,1.442-0.843,2.312l1.929,4.141
	c0.405,0.869,1.442,1.247,2.312,0.842c0.869-0.405,1.248-1.442,0.842-2.312L107.955,101.542z"/>
<path fill="#FFFFFF" d="M87.404,97.792c-0.405-0.87-1.442-1.248-2.312-0.843c-0.869,0.405-1.248,1.442-0.842,2.312l1.93,4.142
	c0.405,0.869,1.442,1.247,2.312,0.842c0.869-0.406,1.248-1.442,0.842-2.312L87.404,97.792z"/>
<path fill="#FFFFFF" d="M92.685,127.626c0.959,0,1.74-0.78,1.74-1.74v-4.568c0-0.959-0.78-1.74-1.74-1.74
	c-0.959,0-1.74,0.781-1.74,1.74v4.568C90.945,126.846,91.726,127.626,92.685,127.626z"/>
<path fill="#FFFFFF" d="M76.449,140.383h-4.568c-0.959,0-1.74,0.78-1.74,1.74s0.78,1.74,1.74,1.74h4.568
	c0.959,0,1.74-0.78,1.74-1.74S77.409,140.383,76.449,140.383z"/>
<path fill="#FFFFFF" d="M79.926,132.018c0.678,0.679,1.783,0.679,2.461,0c0.678-0.678,0.678-1.781,0-2.46l-3.23-3.23
	c-0.678-0.679-1.783-0.679-2.461,0c-0.679,0.678-0.679,1.781,0,2.46L79.926,132.018z"/>
<path fill="#FFFFFF" d="M105.493,131.873l3.23-3.23c0.678-0.678,0.678-1.782,0-2.46c-0.679-0.679-1.782-0.679-2.46,0l-3.23,3.23
	c-0.678,0.679-0.678,1.782,0,2.46C103.711,132.551,104.814,132.551,105.493,131.873z"/>
<path fill="#FFFFFF" d="M118.828,144.458l-0.195-0.084l-0.095-0.189c-2.667-5.345-8.039-8.665-14.018-8.665
	c-0.961,0-1.905,0.089-2.827,0.255c-1.985-2.889-5.306-4.788-9.077-4.788c-6.084,0-11.017,4.933-11.017,11.018
	c0,0.874,0.105,1.722,0.3,2.535c-2.18,2.289-3.523,5.382-3.523,8.785c0,6.288,4.503,11.58,10.707,12.583l0.487,0.079v1.055
	c0,0.959,0.78,1.74,1.74,1.74s1.74-0.781,1.74-1.74v-1.112l0.47-0.091c1.021-0.197,2.006-0.513,2.929-0.94l0.266-0.123l0.257,0.142
	c0.852,0.47,1.752,0.861,2.677,1.163l0.479,0.157l-0.088,0.497c-0.017,0.1-0.032,0.202-0.032,0.308v4.569
	c0,0.959,0.781,1.74,1.74,1.74c0.959,0,1.74-0.78,1.74-1.74v-4.787l0.769,0.023c0.087,0.004,0.176,0.008,0.264,0.008
	c1.76,0,3.495-0.293,5.154-0.872l0.771-0.269v1.328c0,0.959,0.78,1.74,1.74,1.74c0.959,0,1.74-0.781,1.74-1.74v-3.324l0.444-0.332
	l0.229-0.019c0.102,0.003,0.204,0.005,0.306,0.005c5.438,0,9.864-4.425,9.864-9.864
	C124.768,149.567,122.437,146.014,118.828,144.458z M114.904,159.897c-0.248,0-0.519-0.02-0.852-0.065l-0.795-0.106l-0.597,0.535
	c-2.241,2.011-5.131,3.118-8.14,3.118c-2.426,0-4.771-0.712-6.779-2.058l-0.917-0.614l-0.944,0.566
	c-1.448,0.866-3.091,1.325-4.756,1.325c-5.113,0-9.273-4.16-9.273-9.273c0-5.113,4.16-9.272,9.273-9.272
	c0.668,0,1.359,0.079,2.052,0.236l1.073,0.243l0.679-0.864c2.331-2.969,5.828-4.671,9.591-4.671c4.909,0,9.317,2.921,11.232,7.441
	l0.313,0.738l0.765,0.241c2.668,0.843,4.461,3.29,4.461,6.091C121.291,157.032,118.425,159.897,114.904,159.897z"/>
<path fill="#FFFFFF" d="M101.747,176.251c-0.959,0-1.74,0.78-1.74,1.74v4.568c0,0.959,0.781,1.74,1.74,1.74
	c0.959,0,1.74-0.781,1.74-1.74v-4.568C103.487,177.032,102.707,176.251,101.747,176.251z"/>
<path fill="#FFFFFF" d="M91.309,171.683c-0.959,0-1.74,0.78-1.74,1.74v4.569c0,0.959,0.78,1.74,1.74,1.74s1.74-0.78,1.74-1.74
	v-4.569C93.049,172.463,92.269,171.683,91.309,171.683z"/>
<path fill="#FFFFFF" d="M112.186,171.683c-0.959,0-1.74,0.78-1.74,1.74v4.569c0,0.959,0.78,1.74,1.74,1.74
	c0.959,0,1.74-0.78,1.74-1.74v-4.569C113.925,172.463,113.145,171.683,112.186,171.683z"/>
<path fill="#FFFFFF" d="M106.524,223.767v-23.334c0-3.75-3.039-6.79-6.789-6.79c-3.751,0-6.79,3.041-6.79,6.79v23.334
	c-2.37,1.957-3.88,4.917-3.88,8.231c0,5.892,4.777,10.67,10.67,10.67c5.892,0,10.669-4.778,10.669-10.67
	C110.405,228.685,108.894,225.724,106.524,223.767z M99.736,237.231c-2.871,0-5.203-2.299-5.283-5.151
	c-0.002-0.049-0.016-0.097-0.016-0.146c0-1.771,0.882-3.333,2.222-4.296c-0.062-0.244-0.103-0.495-0.103-0.76v-6.15v-11.099h6.357
	v11.099v6.15c0,0.265-0.042,0.516-0.104,0.76c1.34,0.962,2.223,2.524,2.223,4.296c0,0.05-0.014,0.097-0.016,0.146
	C104.938,234.932,102.606,237.231,99.736,237.231z"/>
<path fill="#FFFFFF" d="M109.542,199.714c-1.426,0-2.586-1.16-2.586-2.586s1.16-2.586,2.586-2.586s2.586,1.16,2.586,2.586
	S110.969,199.714,109.542,199.714L109.542,199.714z M109.542,196.042c-0.599,0-1.086,0.487-1.086,1.086s0.487,1.086,1.086,1.086
	s1.086-0.487,1.086-1.086S110.142,196.042,109.542,196.042L109.542,196.042z"/>
<path fill="#FFFFFF" d="M120.021,202.852c0,0.251-0.062,0.522-0.186,0.815c-0.124,0.292-0.318,0.579-0.583,0.861
	c-0.266,0.281-0.604,0.51-1.017,0.686c-0.412,0.175-0.893,0.263-1.441,0.263c-0.417,0-0.794-0.039-1.135-0.118
	c-0.341-0.079-0.65-0.202-0.928-0.369c-0.278-0.167-0.533-0.386-0.767-0.659c-0.208-0.248-0.386-0.525-0.533-0.832
	s-0.257-0.634-0.331-0.981c-0.074-0.348-0.11-0.718-0.11-1.108c0-0.635,0.092-1.203,0.277-1.706
	c0.185-0.502,0.449-0.932,0.793-1.289c0.345-0.357,0.748-0.628,1.211-0.815c0.462-0.187,0.956-0.28,1.479-0.28
	c0.639,0,1.207,0.127,1.706,0.382c0.499,0.255,0.88,0.57,1.146,0.944c0.266,0.375,0.398,0.729,0.398,1.063
	c0,0.183-0.064,0.344-0.193,0.484c-0.129,0.14-0.285,0.209-0.468,0.209c-0.205,0-0.358-0.048-0.46-0.145s-0.216-0.264-0.342-0.5
	c-0.208-0.391-0.453-0.683-0.734-0.877c-0.282-0.193-0.629-0.291-1.041-0.291c-0.657,0-1.179,0.25-1.568,0.748
	s-0.584,1.207-0.584,2.125c0,0.613,0.086,1.124,0.258,1.531c0.172,0.407,0.416,0.711,0.732,0.912
	c0.315,0.201,0.685,0.301,1.108,0.301c0.459,0,0.848-0.114,1.165-0.341c0.317-0.228,0.557-0.563,0.718-1.003
	c0.068-0.208,0.152-0.377,0.253-0.509c0.1-0.131,0.262-0.196,0.484-0.196c0.19,0,0.354,0.066,0.49,0.199
	S120.021,202.654,120.021,202.852z"/>
</svg>
