<?xml version="1.0" encoding="utf-8"?>
<!-- Generator: Adobe Illustrator 14.0.0, SVG Export Plug-In . SVG Version: 6.00 Build 43363)  -->
<!DOCTYPE svg PUBLIC "-//W3C//DTD SVG 1.1//EN" "http://www.w3.org/Graphics/SVG/1.1/DTD/svg11.dtd">
<svg version="1.1" id="圖層_1" xmlns="http://www.w3.org/2000/svg" xmlns:xlink="http://www.w3.org/1999/xlink" x="0px" y="0px"
	 width="29.5px" height="30px" viewBox="0 0 29.5 30" enable-background="new 0 0 29.5 30" xml:space="preserve">
<path fill="#FFFFFF" d="M25.998,8.672h-5.141c-0.104-1.442-0.512-3.859-2.027-5.448c-0.982-1.029-2.264-1.552-3.807-1.552
	c-1.627,0-2.966,0.545-3.978,1.619C9.543,4.886,9.159,7.263,9.069,8.672h-5.07c-0.414,0-0.75,0.336-0.75,0.75v18.333
	c0,0.414,0.336,0.75,0.75,0.75h22c0.414,0,0.75-0.336,0.75-0.75V9.422C26.748,9.008,26.412,8.672,25.998,8.672z M20.441,13.922
	c0,0.229-0.188,0.417-0.416,0.417c-0.23,0-0.418-0.188-0.418-0.417s0.188-0.416,0.418-0.416
	C20.254,13.506,20.441,13.692,20.441,13.922z M12.141,4.315c0.727-0.77,1.67-1.144,2.882-1.144c1.131,0,2.021,0.354,2.719,1.084
	c1.16,1.214,1.506,3.17,1.607,4.416h-8.773C10.664,7.458,10.99,5.534,12.141,4.315z M10.108,13.922c0,0.229-0.187,0.417-0.416,0.417
	s-0.417-0.188-0.417-0.417s0.188-0.416,0.417-0.416S10.108,13.692,10.108,13.922z M25.248,27.004h-20.5V10.172h4.304v1.952
	c-0.741,0.265-1.277,0.967-1.277,1.798c0,1.057,0.86,1.917,1.917,1.917s1.916-0.859,1.916-1.917c0-0.746-0.433-1.387-1.056-1.703
	l-0.001-2.047h8.835v1.951c-0.742,0.265-1.279,0.967-1.279,1.799c0,1.057,0.861,1.917,1.918,1.917s1.916-0.859,1.916-1.917
	c0-0.745-0.432-1.386-1.055-1.702l-0.002-2.048h4.363V27.004z"/>
</svg>
